<svg version="1.2" xmlns="http://www.w3.org/2000/svg" viewBox="0 0 460 460" width="512" height="512">
	<title>157635866</title>
	<style>
		.s0 { fill: #010101 } 
		.s1 { fill: #ffffff } 
	</style>
	<g id="Background">
		<path id="Path 0" class="s0" d="m0 230v230h460v-460h-460z"/>
		<path id="Path 1" class="s1" d="m361.5 275.6c-1.6 0.3-6.6 1.4-11 2.5-4.4 1.1-10.5 3.4-13.5 5.2-3 1.7-6.9 4.5-8.6 6.2-1.6 1.6-4.1 4.6-5.4 6.5-1.3 1.9-3.2 6.1-4.2 9.2-1 3.2-1.8 8.4-1.8 11.5 0 3.2 0.7 8.3 1.6 11.3 0.9 3 3.1 7.7 4.9 10.5 1.8 2.7 4.2 5.7 5.2 6.5 1 0.8 3.4 2.7 5.3 4.1 1.9 1.4 6.2 4 9.5 5.6 3.3 1.7 9.4 4.4 13.5 6.1 4.1 1.7 10.2 4.9 13.5 7 4.4 2.7 6.6 5 8.2 8.2 1.9 3.7 2.1 5.1 1.3 8-0.5 1.9-2.2 4.7-3.7 6.1-1.5 1.5-4.4 3.1-6.3 3.8-1.9 0.6-6.6 1.4-10.5 1.7-5 0.5-9.3 0.2-15-1.1-4.4-1-10.5-2.9-13.5-4.3-3-1.3-7.2-3.8-9.3-5.3l-3.7-2.9v31c4.3 2.2 9.3 3.8 14 5 5.8 1.5 12.8 2.4 22 2.7 11.3 0.4 15 0.2 23-1.6 5.2-1.2 12-3.3 15-4.8 3-1.4 7.1-4 9.2-5.7 2-1.7 5-5.1 6.7-7.6 1.8-2.7 3.7-7.6 4.8-12 1.5-6.5 1.5-8.5 0.5-15.5-0.7-4.4-2.1-9.8-3.2-12-1-2.2-3.6-6-5.7-8.4-2.1-2.4-6-5.9-8.8-7.7-2.7-1.7-7.5-4.3-10.5-5.7-3-1.4-9.1-4.2-13.5-6.2-4.4-2-10.1-5.1-12.7-6.8-3.1-2.1-5.5-4.7-6.8-7.5-1.6-3.3-1.8-4.9-1-7.5 0.5-1.7 2-4.2 3.2-5.4 1.3-1.2 4.1-3 6.3-3.9 3-1.3 6.7-1.7 14.5-1.7 7.3 0 12.2 0.5 16 1.8 3 1 7.1 2.6 9 3.5 1.9 1 4.5 2 5.8 2.4l2.2 0.6c0-27-0.1-28.1-2-29-1.1-0.6-5.5-1.7-9.7-2.6-4.3-0.8-13.2-1.7-19.8-1.9-6.6-0.2-13.4-0.1-15 0.1zm-168.5 72.4v70h32c0.1-22.9 0.1-37.7 0.1-47.8-0.1-11.2 0.3-18.4 0.9-18.7 0.6-0.3 1.3 0.5 1.7 1.7 0.4 1.3 3.4 6.3 6.7 11.3 3.4 4.9 6.9 10.1 7.9 11.5 1 1.4 7.8 11.5 15.1 22.5 10.5 15.8 13.7 20 15.4 20 1.2 0 10.1-0.1 19.7-0.3l17.5-0.2c-3.5-5.3-8.2-11.9-12.6-18.2-4.5-6.2-10.7-14.7-13.7-18.8-3.1-4.1-6.6-9-7.9-10.8-1.3-1.8-3.7-5.2-5.4-7.5-1.7-2.3-5.2-7-7.7-10.5-2.6-3.4-4.7-6.8-4.6-7.5 0-0.6 1.6-3.2 3.4-5.7 1.9-2.5 6-8 9.2-12.4 3.2-4.3 6.5-8.8 7.3-10 0.8-1.2 2.7-3.7 4.1-5.6 1.4-1.9 6.4-8.7 11-15 4.7-6.3 9.5-13 10.7-14.8l2.2-3.2h-37.5c-21.7 32.6-28.7 43.1-29.5 44.4-0.8 1.3-4 6.2-7 11-3 4.8-5.8 8.7-6.2 8.6-0.5 0-0.8-14.4-0.8-32v-32h-32z"/>
	</g>
</svg>